# 3ds Max Wavefront OBJ Exporter v0.97b - (c)2007 guruware
# File Created: 12.05.2013 13:34:22

#
# object surface
#

v  -505.9884 0.0000 -505.9884
v  -505.9884 0.0000 505.9884
v  505.9884 0.0000 -505.9884
v  505.9884 0.0000 505.9884
# 4 vertices

vn 0.0000 1.0000 -0.0000
# 1 vertex normals

vt -44.9999 54.9999 0.5000
vt -44.9999 -44.9999 0.5000
vt 54.9999 54.9999 0.5000
vt 54.9999 -44.9999 0.5000
# 4 texture coords

g surface
f 1/1/1 2/2/1 3/3/1 
f 4/4/1 3/3/1 2/2/1 
# 2 faces

